<svg id="Layer_1" data-name="Layer 1" xmlns="http://www.w3.org/2000/svg" viewBox="0 0 407 127"><defs><style>.cls-1{fill:#f9d230;}.cls-2{fill:#e8c805;}.cls-3{fill:#fff632;}.cls-4{fill:#f7e61c;}.cls-5{fill:#f4d300;}.cls-6{fill:#ddb905;}.cls-7{fill:#fff;}</style></defs><title>Artboard 5</title><polygon class="cls-1" points="42.71 11.5 74.88 11.5 97.85 34.58 97.85 68.05 80.38 115.5 61.44 115.5 42.49 107.13 16.93 49.84 21.33 30.12 42.71 11.5"/><polygon class="cls-2" points="42.71 11.5 74.88 11.5 97.85 34.58 97.85 68.05 80.38 115.5 61.44 115.5 42.49 107.13 16.93 49.84 21.33 30.12 42.71 11.5"/><polygon class="cls-3" points="42.71 11.5 74.88 11.5 82.81 19.54 60.66 19.54 50.09 30.12 21.33 30.12 42.71 11.5"/><polygon class="cls-4" points="82.81 19.54 97.85 34.58 97.85 68.05 88.34 93.89 59.59 93.89 50.09 30.12 60.66 19.54 82.81 19.54"/><polygon class="cls-5" points="50.09 30.12 59.59 93.89 42.49 107.13 16.93 49.84 21.33 30.12 50.09 30.12"/><polygon class="cls-6" points="59.59 93.89 61.44 115.5 42.49 107.13 59.59 93.89"/><polygon class="cls-2" points="88.34 93.89 80.38 115.5 61.44 115.5 59.59 93.89 88.34 93.89"/><path class="cls-7" d="M135.91,36.62h40.17V47.17H147.52V58.4h25.16V69H147.52V89.37H135.91Z"/><path class="cls-7" d="M185.34,36.62h39.79V47H196.87v10.7h24.87V68H196.87V79.05h28.64V89.37H185.34Z"/><path class="cls-7" d="M235.83,36.62h39.78V47H247.36v10.7h24.86V68H247.36V79.05H276V89.37H235.83Z"/><path class="cls-7" d="M286.31,36.62h20.57c16.58,0,28,11.38,28,26.23V63c0,14.84-11.46,26.37-28,26.37H286.31ZM297.92,47.1V78.9h9c9.5,0,15.9-6.41,15.9-15.75V63c0-9.35-6.4-15.9-15.9-15.9Z"/><path class="cls-7" d="M389.32,36.62,369.88,62.47l20.19,26.9H383L366.11,66.61,349.23,89.37h-6.86l20.2-26.9L343.13,36.62h7l16.13,21.71,16.13-21.71Z"/></svg>